<?xml version="1.0" encoding="utf-8"?>
<!-- Uploaded to: SVG Repo, www.svgrepo.com, Generator: SVG Repo Mixer Tools -->
<svg width="800px" height="800px" viewBox="0 -61.82 331.514 331.514" xmlns="http://www.w3.org/2000/svg"><defs><style>.a{fill:#ffffff;}.b{fill:#211715;}.c{fill:#231815;}</style></defs><path class="a" d="M291.7,108.848c.12-6.32,1.86-20.71,1.85-30.53a45.3,45.3,0,0,0-.28-5.57c-.02-.16-.04-.32-.06-.47a46.868,46.868,0,0,0-.63-6.4,63.468,63.468,0,0,0-10.68-25.2,50.675,50.675,0,0,0-11.02-11.87,79.092,79.092,0,0,0-17.79-9.49.564.564,0,0,0-.12-.04c-17.23-6.57-35.97-7.2-55.35-6.61-4.48.14-9,.34-13.54.55-2.69.14-5.5.29-8.37.47-25.24,1.57-56.63,4.74-83.2,2.57A144.545,144.545,0,0,1,77.03,14.227a34.733,34.733,0,0,0,6.321-4.18,4.358,4.358,0,0,0,1.8-2.533,3.112,3.112,0,0,0-1.718-2.955,8.709,8.709,0,0,0-3.508-.844,38.049,38.049,0,0,0-9.006.03c-2.985.442-5.206.694-7.538,2.593,0,0-.59.381-.586.385-.962-.54-2.114-1.232-3.649-2.125-4.2-2.42-9.88-3.9-13.65-.84-2.8,2.26-3.63,6.38-6.55,8.52a7.526,7.526,0,0,1-1.09.66c-1.96,1.01-4.31,1.33-6.23,2.47-5.19,3.07-6,9.38-7.83,15.87-2.64,7.65-6.04,11.89-10.28,16.91-3.82,4.52-10.59,7.23-11.46,13.09-.65,4.48,2.79,8.64,6.76,10.85,7.98,4.46,17.85,3.34,26.77,1.32,6.261-1.417,17.084-4.162,25.5-8.1l.577,1.13c2.358,4.611,7.178,8.492,12.493,13.767a25.778,25.778,0,0,1,7.019,12.542c3.383,14.868,10.3,34.822,27.784,42.031a19.95,19.95,0,0,1,1.493,6.795c-.439,10.791,5.392,26.128,5.115,33.317a57.724,57.724,0,0,1-4.7,14.9c-2.074,2.8-4.561,9-4.77,11.613-.139,1.743,1.362,2.8,3.111,2.8,4.282,0,13,.251,14.446.138,1.2-.095,3.94.311,5.185-1.654.633-1,.415-9.06.588-12.689.725-2.489,2.8-5.618,4.251-10.68,1.106-3.871-.612-10.354-1.295-18.218-.405-4.66,2.158-11.787,5.492-19.676l.77.213c4.824,1.377,21.83,3.881,34.671,3.669,24.066-.4,52.2-6.434,73.283-13.645l.574-.282a50.018,50.018,0,0,0,12.767,9.153c6.672,3.689,10.719,11,12.261,18.464s2.944,13.2,3.733,19.769c.532,4.434,1.721,9.271,1.348,13.721-.45,2.316-2.408,8.259-3.166,10.948a1.664,1.664,0,0,0,1.473,2.109c4.766.391,14.194.344,19.133.123a2.5,2.5,0,0,0,2.369-2.248,85.215,85.215,0,0,0,.271-13.04c-1.382-5.53-3.737-15.5-4.986-21.448-5.486-26.133-3.154-33.529-.682-60.118"/><path class="b" d="M97.852,62.371c-3.489,7.612-8.563,7.62-15.428,2.816S77.954,52.05,69.692,50.7c-7.076-1.156-14.061,1.9-20.845,4.221S34.152,58.794,28.072,55a7.523,7.523,0,0,1-3.488-4.152c-1.417-5.1,4.794-8.643,7.88-12.955,3.216-4.5,3.015-10.483,3.849-15.951.292-1.94.784-5.357,1.538-9a7.522,7.522,0,0,0,1.1-.664C41.861,10.137,42.7,6.017,45.5,3.755,49.269.7,54.948,2.177,59.149,4.6c1.528.885,2.673,1.578,3.638,2.121l.593-.382c2.332-1.9,4.553-2.151,7.538-2.593a38.05,38.05,0,0,1,9.006-.03,8.709,8.709,0,0,1,3.508.844A3.112,3.112,0,0,1,85.15,7.514a4.361,4.361,0,0,1-1.8,2.533,34.8,34.8,0,0,1-6.322,4.181c4.9.935,17.4,3.4,45.84,2.515C123.985,39.3,100.863,35.527,97.7,48.672,96.569,53.389,99.08,59.691,97.852,62.371Z"/><path class="b" d="M292.575,65.878c-2.31,4.01-5.77,5.92-10.09,5.41-5.15-.6-9.5-3.98-13.5-7.28s-8.19-6.81-13.29-7.75c-4.57-.84-9.22.49-13.78,1.34s-20.78-.27-24.87-2.47c-4.19-2.25-7.05-5.65-5.52-11.6,3.94-15.3-8.43-18.28-14.75-25.97a3.329,3.329,0,0,1,.84-4.89c19.38-.59,38.12.04,55.35,6.61a.564.564,0,0,1,.12.04,79.092,79.092,0,0,1,17.79,9.49,50.675,50.675,0,0,1,11.02,11.87A63.468,63.468,0,0,1,292.575,65.878Z"/><path class="b" d="M144.172,77.975c11.9,2.6,22.688,2.6,29.755,0a12.615,12.615,0,0,0,8.439-13c-.628-7.088-.872-11.271-3.6-15.643-3-4.794-7.287-7.811-12.274-7.81-10.772,0-9.84,10.342-17.109,12.645-14.066,4.458-16.681,11.322-16.365,14.134C133.649,73.466,140.5,77.173,144.172,77.975Z"/><path class="c" d="M100.982,114.279c.076,8.007,4.214,15.182,6.572,22.637a16.5,16.5,0,0,1,.895,4.043c.072,1.769-.015,3.523.141,5.294a97.677,97.677,0,0,0,2.1,12.422c.846,3.84,1.815,7.662,2.471,11.541a22.09,22.09,0,0,1,.415,4.158,27.043,27.043,0,0,1-1.494,6.687,56.9,56.9,0,0,1-2.042,5.8A40.373,40.373,0,0,1,107.9,190.8a28.838,28.838,0,0,0-3.755,10.24,4.505,4.505,0,0,0,2.918,4.8c1.545.607,3.332.411,4.965.432,3.4.045,6.809.15,10.214.145,2.769,0,6.093.206,7.981-2.207a6.1,6.1,0,0,0,.964-3.548c.114-1.631.124-3.27.142-4.9.018-1.665,0-3.335.071-5,.047-1.142.975-2.7,1.538-3.923,1.672-3.637,3.233-7.329,3.087-11.4-.16-4.467-1.116-8.889-1.553-13.333a19.723,19.723,0,0,1,.762-7.567c1.825-6.848,4.9-13.356,7.733-19.826,3.022-6.9,6.18-13.833,8.229-21.1a47.134,47.134,0,0,0,1.067-4.6,2.057,2.057,0,0,0-1.4-2.461,2.018,2.018,0,0,0-2.46,1.4c-1.182,6.7-3.882,13.118-6.545,19.341-2.926,6.836-6.114,13.58-8.673,20.568a50.337,50.337,0,0,0-2.448,8.441,30.834,30.834,0,0,0,.188,9.7c.5,3.784,1.48,7.855,1.05,11.689-.4,3.559-2.5,6.9-3.86,10.156-1.227,2.928-.755,6.405-.812,9.53-.023,1.28-.043,3.087-.184,4.082.029-.2-.084.36-.088.425-.018.3.167-.129,0-.063a5.17,5.17,0,0,1-1.638.527c-2.4.168-4.846.065-7.251.026-1.826-.03-3.653-.065-5.479-.091-.759-.011-1.517-.021-2.275-.026-.569,0-1.593.184-2.061-.216a.819.819,0,0,1-.2-.8,15.72,15.72,0,0,1,.6-2.3A34.887,34.887,0,0,1,110.733,194c.69-1.387,1.634-2.633,2.279-4.033.767-1.664,1.442-3.373,2.044-5.1,1.315-3.775,2.787-8.04,2.444-12.08a76.372,76.372,0,0,0-1.845-10.246c-.888-3.941-1.821-7.877-2.487-11.864a54.324,54.324,0,0,1-.671-5.658c-.095-1.581.061-3.18-.105-4.752-.352-3.331-1.666-6.5-2.866-9.6a89.317,89.317,0,0,1-3.832-11.141,23.081,23.081,0,0,1-.712-5.241c-.025-2.572-4.025-2.579-4,0Z"/><path class="c" d="M235.777,105.949c.546,6.121,1.489,12.243,3.964,17.911a32.586,32.586,0,0,0,9.877,12.449,64.258,64.258,0,0,0,9.312,5.99c2.266,1.223,4.288-2.23,2.019-3.454-4.907-2.647-9.686-5.7-13.369-9.943a30.165,30.165,0,0,1-6.249-12.838,68.658,68.658,0,0,1-1.554-10.115,2.054,2.054,0,0,0-2-2,2.014,2.014,0,0,0-2,2Z"/><path class="c" d="M289.693,108.852c-1.116,11.954-3.028,23.987-2.619,36.023.427,12.538,3.306,24.861,6.171,37.024.668,2.838,1.366,5.668,2.051,8.5.524,2.17.231,5.168.146,7.546-.048,1.368-.118,2.737-.225,4.1-.1,1.235.006,1.64-1.312,1.69-2.874.108-5.752.141-8.627.135s-5.752-.038-8.621-.215a3.105,3.105,0,0,0-.814-.056c.08-.065.231.4.2.4a11.874,11.874,0,0,0,.438-1.49c.381-1.265.774-2.527,1.159-3.791.8-2.628,1.711-5.223,1.711-8,0-3.864-.857-7.663-1.364-11.477-.525-3.956-1.16-7.871-1.966-11.78-.816-3.953-1.473-8.018-2.63-11.887-2.037-6.817-6.147-13.177-12.443-16.738-2.244-1.268-4.262,2.186-2.019,3.454,5.574,3.152,9.063,8.842,10.763,14.891,1,3.575,1.629,7.288,2.384,10.922.722,3.472,1.391,6.959,1.83,10.479.493,3.959,1.405,7.907,1.443,11.909.025,2.694-.989,5.276-1.77,7.828-.754,2.465-2.631,6.013-.431,8.2,1.136,1.127,2.747,1.1,4.239,1.174,1.453.075,2.908.115,4.362.141q4.669.082,9.34-.021c2.864-.061,6.391.258,7.674-2.949a14.082,14.082,0,0,0,.553-4.275q.139-2.319.178-4.642a29.7,29.7,0,0,0-.632-7.79c-3.087-12.555-6.375-25.292-7.482-38.206-1.008-11.746.548-23.418,1.727-35.091q.3-3.006.585-6.015a2.015,2.015,0,0,0-2-2,2.043,2.043,0,0,0-2,2Z"/><path class="c" d="M138.112,143.606a100.677,100.677,0,0,0,15.611,2.59,150.139,150.139,0,0,0,21.457,1.109,236.431,236.431,0,0,0,47.381-6.652c8.293-1.954,16.5-4.273,24.568-7.024,2.423-.826,1.383-4.691-1.063-3.857a268.445,268.445,0,0,1-44.476,10.96,174.04,174.04,0,0,1-44.794,1.795c-5.854-.586-11.935-1.181-17.62-2.779-2.483-.7-3.542,3.161-1.064,3.858Z"/><path class="c" d="M59.935,67.491c3.045,5.8,8.607,9.855,13.092,14.461a24.158,24.158,0,0,1,5,7.51,55.388,55.388,0,0,1,2.125,7.622c2.569,9.976,6.381,19.879,12.872,27.99a38.383,38.383,0,0,0,14.231,11.183,2.064,2.064,0,0,0,2.737-.718,2.015,2.015,0,0,0-.718-2.736c-9.674-4.3-16.1-12.809-20.341-22.258a89.329,89.329,0,0,1-4.769-13.932c-.619-2.353-1.045-4.782-1.851-7.081a28.507,28.507,0,0,0-4.588-8.275c-4.4-5.559-10.984-9.4-14.34-15.785-1.2-2.28-4.65-.26-3.453,2.019Z"/><path class="c" d="M293.7,108.848c.162-7.479,1.141-14.941,1.577-22.408.528-9.065.388-18.387-2.163-27.168a68.651,68.651,0,0,0-13.03-24.277c-5.762-6.994-13.3-11.851-21.518-15.55-18.077-8.14-38.092-9.3-57.643-8.865-19.364.436-38.651,2.151-57.975,3.33-19.291,1.177-38.9,2.043-58.125-.449-2.428-.314-4.845-.708-7.251-1.161-2.516-.474-3.594,3.381-1.063,3.857,18.937,3.564,38.484,3.188,57.648,2.241,18.839-.93,37.626-2.683,56.474-3.471,19.376-.809,39.352-1.19,58,4.931a79.834,79.834,0,0,1,12.7,5.392,53.4,53.4,0,0,1,10.844,7.186,61.537,61.537,0,0,1,14.835,21.558c3.6,8.551,4.735,17.736,4.5,26.958-.2,7.91-1.071,15.78-1.606,23.669-.1,1.408-.179,2.817-.21,4.227-.055,2.575,3.945,2.575,4,0Z"/><path class="c" d="M62.229,9.462A34.578,34.578,0,0,1,66.36,6.81c2.542-1.161,5.858-1.338,8.6-1.349a50.917,50.917,0,0,1,5.164.273c.776.076,3,.262,3.046,1.423.042.988-2.155,2.222-2.835,2.709A35.761,35.761,0,0,1,76.02,12.5c-2.284,1.191-.263,4.644,2.019,3.454a36.529,36.529,0,0,0,5.333-3.39c1.551-1.187,3.3-2.479,3.707-4.519A5.025,5.025,0,0,0,84.75,3.027C82.987,1.82,80.631,1.754,78.574,1.6a35.58,35.58,0,0,0-12.042.918c-2.487.694-4.237,2.137-6.322,3.487-2.153,1.395-.151,4.859,2.019,3.454Z"/><path class="c" d="M25.911,13.065a7.205,7.205,0,0,1-.552-.823c-.07-.123-.136-.248-.2-.375-.042-.085-.082-.17-.12-.256q.148.36.066.151c-.1-.291-.2-.576-.28-.875-.035-.137-.066-.276-.094-.415-.018-.093-.034-.186-.049-.279.036.3.042.334.016.11-.022-.284-.044-.566-.044-.851,0-.165.007-.331.018-.5,0-.071.009-.142.016-.212q.036-.337-.021.109a2.514,2.514,0,0,1,.169-.833,3.972,3.972,0,0,1,.313-.939c-.263.457-.015.059.033-.036.074-.148.154-.292.239-.434s.178-.278.269-.416q.16-.221.012-.021t.024-.007q.242-.222-.086.063l-.234.107a1.139,1.139,0,0,1-.891-.078q.27.178-.065-.057c.068,0,.309.3.34.331l.4.4,3.632,3.632A2,2,0,1,0,31.656,7.74c-1.421-1.421-2.806-2.894-4.271-4.269a3.115,3.115,0,0,0-3.763-.7,5.29,5.29,0,0,0-1.893,2.25,9.7,9.7,0,0,0,.728,10.058,2.191,2.191,0,0,0,1.2.919,2,2,0,0,0,2.259-2.938Z"/><path class="c" d="M69.768,56.979c-2.325,3.093-6.633,5.253-10.232,6.9a101.891,101.891,0,0,1-14.4,5.083c-4.554,1.3-9.177,2.48-13.836,3.338-6.223,1.145-12.9,1.582-18.927-.693C7.852,69.9,1.884,65.038,4.668,59.6c1.107-2.163,3.136-3.752,4.987-5.251a40.523,40.523,0,0,0,5.751-5.309,55.425,55.425,0,0,0,9.232-14.365,80.4,80.4,0,0,0,2.706-8.937c.7-2.441,1.536-5.046,3.287-6.958,2.439-2.661,6.073-2.656,8.974-4.532,2.786-1.8,3.943-4.813,5.773-7.422,4.2-5.982,11.79-.987,16.4,1.622,2.243,1.271,4.261-2.184,2.019-3.454C58.416,1.945,51.951-2.054,45.7,1.229c-2.814,1.479-4.2,4.305-5.8,6.887a7.93,7.93,0,0,1-2.683,2.895,41.378,41.378,0,0,1-5.009,1.9c-6.129,2.535-8,8.859-9.524,14.743a43.068,43.068,0,0,1-8.5,16.606,40.146,40.146,0,0,1-5.765,5.964,35.308,35.308,0,0,0-6.195,5.78A10.488,10.488,0,0,0,.185,64.375a13.8,13.8,0,0,0,5.292,7.908c10.385,8.125,25.2,4.615,36.81,1.6a125.007,125.007,0,0,0,17.451-5.754C64.7,66.018,69.91,63.4,73.222,59a2.013,2.013,0,0,0-.717-2.737,2.05,2.05,0,0,0-2.737.718Z"/><path class="c" d="M93.236,135.189a15.429,15.429,0,0,0,.864,9.068,49.831,49.831,0,0,1,3.2,12.1c1.256,10.5.909,21.581-4.061,31.143-1.269,2.44-2.076,5.44.6,7.264,2.177,1.486,5.339,1.31,7.849,1.315,2.574,0,2.578-4,0-4-1.119,0-2.24,0-3.356-.1-.562-.046-1.861-.084-2.265-.515-.291-.31.169-1.07.432-1.581.586-1.135,1.154-2.271,1.655-3.447a48.3,48.3,0,0,0,3.512-14.607,73.435,73.435,0,0,0-.314-15.049,49.072,49.072,0,0,0-2.867-12.248c-1.154-2.984-2.023-5.232-1.387-8.28.524-2.512-3.33-3.586-3.857-1.064Z"/><path class="c" d="M243.329,141.911c.941,3.968,3.261,7.662,5.435,11.058,2.284,3.571,4.913,6.905,7.2,10.468,5.449,8.48,8.451,18.589,7.415,28.7-.27,2.635-1.6,5.715.7,7.828,1.38,1.263,3.193,1.161,4.933,1.227,2.574.1,2.57-3.9,0-4-.584-.022-2.158.139-2.344-.326s.394-2.261.491-2.957c.177-1.276.311-2.556.376-3.842a45.453,45.453,0,0,0-1.711-14.481,52.7,52.7,0,0,0-5.96-13.454c-2.09-3.368-4.566-6.489-6.752-9.8-2.321-3.512-4.946-7.331-5.931-11.484-.594-2.5-4.452-1.444-3.857,1.063Z"/><path class="c" d="M110.659,192.349c6.257-.011,12.507-.4,18.767-.311,2.574.037,2.575-3.963,0-4-6.26-.092-12.51.3-18.767.311-2.574,0-2.579,4,0,4Z"/><path class="c" d="M280.224,192.665a111.64,111.64,0,0,1,16.862-1.129c2.575.017,2.577-3.983,0-4a118.577,118.577,0,0,0-17.926,1.272,2.013,2.013,0,0,0-1.4,2.46,2.053,2.053,0,0,0,2.461,1.4Z"/><path class="a" d="M42.644,29.167c-.949,1.595-1.57,5.644,1.6,6.774,4.31,1.022,5.706-3.716,4.806-6.322C48.318,27.485,45.017,25.868,42.644,29.167Z"/><path class="c" d="M284.69,32.973A33.417,33.417,0,0,1,299,45.82c4.014,6.625,4.771,14.382,6.7,21.745,1.217,4.645,2.552,9.26,3.523,13.966.52,2.52,4.377,1.453,3.857-1.063-.89-4.314-2.084-8.552-3.216-12.806-1.122-4.214-1.932-8.484-2.954-12.719a38.086,38.086,0,0,0-10.526-18.732,36.675,36.675,0,0,0-9.675-6.692c-2.314-1.095-4.346,2.352-2.019,3.454Z"/><path class="b" d="M9.844,62.228h3.35a2.06,2.06,0,0,0,1.414-.586,2,2,0,0,0,0-2.829,2.077,2.077,0,0,0-1.414-.585H9.844a2.068,2.068,0,0,0-1.415.585,2,2,0,0,0,0,2.829,2.083,2.083,0,0,0,1.415.586Z"/><path class="a" d="M70.248,12.382l.09-.042-.478.2a5.845,5.845,0,0,1,1.429-.344l-.532.071a6.245,6.245,0,0,1,1.65-.032l-.532-.072a3.514,3.514,0,0,1,.351.07,2.086,2.086,0,0,0,1.541-.2,2,2,0,0,0-.478-3.655,6.7,6.7,0,0,0-2.532-.109,7.8,7.8,0,0,0-2.527.659,2.025,2.025,0,0,0-.92,1.195,2.047,2.047,0,0,0,.2,1.541,2.017,2.017,0,0,0,1.195.919l.532.072a1.987,1.987,0,0,0,1.009-.273Z"/><path class="c" d="M310.78,83.677a10.169,10.169,0,0,1,10.215.74c3.229,2.051,5.126,5.682,5.983,9.313,1.622,6.873-.374,15.277-6.5,19.353-2.134,1.418-.133,4.884,2.019,3.454,6.01-4,9.056-11.136,9.021-18.229-.036-7.444-3.52-15.443-10.709-18.478a13.842,13.842,0,0,0-12.043.393c-2.261,1.232-.244,4.688,2.019,3.454Z"/><path class="c" d="M308.086,85.8a9.223,9.223,0,0,0,1.052,13.842c2.015,1.541,4.8,2.5,5.871,4.981a11.771,11.771,0,0,1-.39,8.991,2.062,2.062,0,0,0,.717,2.736,2.015,2.015,0,0,0,2.737-.717c2.49-5.6,2.431-12.876-2.9-16.775-1.817-1.329-4.415-2.254-5.368-4.456a5.289,5.289,0,0,1,1.109-5.774c1.831-1.814-1-4.643-2.829-2.828Z"/></svg>