<?xml version="1.0" encoding="utf-8"?><!-- Uploaded to: SVG Repo, www.svgrepo.com, Generator: SVG Repo Mixer Tools -->
<svg width="800px" height="800px" viewBox="0 0 400 400" fill="none" xmlns="http://www.w3.org/2000/svg">
<path d="M348.981 199.146C351.389 179.881 349.162 175.652 346.124 175.652C343.087 175.652 327.027 176.993 318.421 176.993C309.917 176.993 271.14 181.471 267.231 175.652C264.118 171.029 276.14 160.265 266.301 155.387C256.01 150.281 256.01 161.149 242.368 158.125C210.727 151.109 179.495 147.235 145.311 151.65C134.913 152.993 124.178 164.82 109.771 169.667C88.5171 176.819 45.8724 190.093 48.9184 220.333C52.8128 258.954 127.703 263.804 153.429 265.019C156.471 265.16 184.137 267.122 185.014 263.633C190.744 240.91 152.717 249.697 152.5 248.894C150.865 242.855 146.773 238.038 140.224 234.441L119.986 243.827C118.804 234.092 117.72 228.412 116.735 226.785C113.761 221.869 93.7688 224.479 99.5508 224.479C105.004 224.479 103.488 204.672 103.731 204.672C116.84 204.672 118.852 205.583 128.353 194.984" stroke="#000000" stroke-opacity="0.9" stroke-width="16" stroke-linecap="round" stroke-linejoin="round"/>
<path d="M340.828 200.576C305.792 196.37 258.473 212.981 233.999 194.097" stroke="#000000" stroke-opacity="0.9" stroke-width="16" stroke-linecap="round" stroke-linejoin="round"/>
<path d="M238.545 204.124C205.21 222.157 163.071 215.011 131.716 196.37" stroke="#000000" stroke-opacity="0.9" stroke-width="16" stroke-linecap="round" stroke-linejoin="round"/>
<path d="M215.816 214.554C227.583 224.779 244.634 227.055 260.139 227.055" stroke="#000000" stroke-opacity="0.9" stroke-width="16" stroke-linecap="round" stroke-linejoin="round"/>
<path d="M152.172 139.055C161.313 127.237 160.695 144.862 168.83 146.379C171.577 146.892 176.359 143.588 183.175 136.467C186.993 142.842 191.311 147.151 196.129 149.395C202.178 152.212 206.281 138.037 216.951 149.395" stroke="#000000" stroke-opacity="0.9" stroke-width="16" stroke-linecap="round" stroke-linejoin="round"/>
<path d="M162.446 211.145C161.569 221.958 173.594 225.142 181.721 225.919" stroke="#000000" stroke-opacity="0.9" stroke-width="16" stroke-linecap="round" stroke-linejoin="round"/>
</svg>